<svg width="75" height="80" viewBox="0 0 75 80" fill="none" xmlns="http://www.w3.org/2000/svg">
<mask id="path-1-outside-1_6_31" maskUnits="userSpaceOnUse" x="7" y="7" width="63" height="67" fill="black">
<rect fill="white" x="7" y="7" width="63" height="67"/>
<path d="M17.5694 64V17.8H40.1414C45.9494 17.8 50.3054 18.9 53.2094 21.1C56.1574 23.3 57.6314 26.204 57.6314 29.812C57.6314 32.232 57.0374 34.344 55.8494 36.148C54.6614 37.908 53.0334 39.272 50.9654 40.24C48.8974 41.208 46.5214 41.692 43.8374 41.692L45.0914 38.986C47.9954 38.986 50.5694 39.47 52.8134 40.438C55.0574 41.362 56.7954 42.748 58.0274 44.596C59.3034 46.444 59.9414 48.71 59.9414 51.394C59.9414 55.354 58.3794 58.456 55.2554 60.7C52.1314 62.9 47.5334 64 41.4614 64H17.5694ZM28.1954 55.948H40.6694C43.4414 55.948 45.5314 55.508 46.9394 54.628C48.3914 53.704 49.1174 52.252 49.1174 50.272C49.1174 48.336 48.3914 46.906 46.9394 45.982C45.5314 45.014 43.4414 44.53 40.6694 44.53H27.4034V36.742H38.8214C41.4174 36.742 43.3974 36.302 44.7614 35.422C46.1694 34.498 46.8734 33.112 46.8734 31.264C46.8734 29.46 46.1694 28.118 44.7614 27.238C43.3974 26.314 41.4174 25.852 38.8214 25.852H28.1954V55.948Z"/>
</mask>
<path d="M17.5694 64V17.8H40.1414C45.9494 17.8 50.3054 18.9 53.2094 21.1C56.1574 23.3 57.6314 26.204 57.6314 29.812C57.6314 32.232 57.0374 34.344 55.8494 36.148C54.6614 37.908 53.0334 39.272 50.9654 40.24C48.8974 41.208 46.5214 41.692 43.8374 41.692L45.0914 38.986C47.9954 38.986 50.5694 39.47 52.8134 40.438C55.0574 41.362 56.7954 42.748 58.0274 44.596C59.3034 46.444 59.9414 48.71 59.9414 51.394C59.9414 55.354 58.3794 58.456 55.2554 60.7C52.1314 62.9 47.5334 64 41.4614 64H17.5694ZM28.1954 55.948H40.6694C43.4414 55.948 45.5314 55.508 46.9394 54.628C48.3914 53.704 49.1174 52.252 49.1174 50.272C49.1174 48.336 48.3914 46.906 46.9394 45.982C45.5314 45.014 43.4414 44.53 40.6694 44.53H27.4034V36.742H38.8214C41.4174 36.742 43.3974 36.302 44.7614 35.422C46.1694 34.498 46.8734 33.112 46.8734 31.264C46.8734 29.46 46.1694 28.118 44.7614 27.238C43.3974 26.314 41.4174 25.852 38.8214 25.852H28.1954V55.948Z" fill="url(#paint0_linear_6_31)"/>
<path d="M17.5694 64H7.56941V74H17.5694V64ZM17.5694 17.8V7.8H7.56941V17.8H17.5694ZM53.2094 21.1L47.1708 29.0709L47.1996 29.0927L47.2286 29.1143L53.2094 21.1ZM55.8494 36.148L64.1379 41.7427L64.1698 41.6955L64.2011 41.6479L55.8494 36.148ZM50.9654 40.24L55.2048 49.2969L55.2048 49.2969L50.9654 40.24ZM43.8374 41.692L34.7643 37.4874L28.1817 51.692H43.8374V41.692ZM45.0914 38.986V28.986H38.704L36.0183 34.7814L45.0914 38.986ZM52.8134 40.438L48.8525 49.6201L48.9289 49.6531L49.0059 49.6848L52.8134 40.438ZM58.0274 44.596L49.7069 50.143L49.7521 50.2108L49.7984 50.2779L58.0274 44.596ZM55.2554 60.7L61.0132 68.8761L61.0514 68.8491L61.0894 68.8218L55.2554 60.7ZM28.1954 55.948H18.1954V65.948H28.1954V55.948ZM46.9394 54.628L52.2394 63.108L52.2739 63.0864L52.3082 63.0646L46.9394 54.628ZM46.9394 45.982L41.2741 54.2224L41.4206 54.3232L41.5707 54.4186L46.9394 45.982ZM27.4034 44.53H17.4034V54.53H27.4034V44.53ZM27.4034 36.742V26.742H17.4034V36.742H27.4034ZM44.7614 35.422L50.1827 43.825L50.2154 43.8038L50.248 43.7825L44.7614 35.422ZM44.7614 27.238L39.1529 35.5172L39.3053 35.6204L39.4614 35.718L44.7614 27.238ZM28.1954 25.852V15.852H18.1954V25.852H28.1954ZM27.5694 64V17.8H7.56941V64H27.5694ZM17.5694 27.8H40.1414V7.8H17.5694V27.8ZM40.1414 27.8C44.972 27.8 46.7666 28.7647 47.1708 29.0709L59.248 13.1291C53.8442 9.03527 46.9268 7.8 40.1414 7.8V27.8ZM47.2286 29.1143C47.4395 29.2717 47.5445 29.3821 47.5861 29.4301C47.6248 29.4747 47.6226 29.4813 47.6088 29.4541C47.5948 29.4264 47.595 29.4157 47.6018 29.4457C47.6094 29.4796 47.6314 29.5934 47.6314 29.812H67.6314C67.6314 22.9761 64.6094 17.1298 59.1903 13.0857L47.2286 29.1143ZM47.6314 29.812C47.6314 30.1999 47.5846 30.4141 47.5594 30.5035C47.5366 30.5844 47.5166 30.6193 47.4977 30.6481L64.2011 41.6479C66.5909 38.019 67.6314 33.9435 67.6314 29.812H47.6314ZM47.5609 30.5533C47.4609 30.7014 47.284 30.9219 46.726 31.1831L55.2048 49.2969C58.7828 47.6221 61.8619 45.1146 64.1379 41.7427L47.5609 30.5533ZM46.726 31.1831C46.198 31.4303 45.3112 31.692 43.8374 31.692V51.692C47.7316 51.692 51.5968 50.9857 55.2048 49.2969L46.726 31.1831ZM52.9105 45.8966L54.1645 43.1906L36.0183 34.7814L34.7643 37.4874L52.9105 45.8966ZM45.0914 48.986C46.8854 48.986 48.0718 49.2833 48.8525 49.6201L56.7743 31.2559C53.067 29.6567 49.1054 28.986 45.0914 28.986V48.986ZM49.0059 49.6848C49.5891 49.9249 49.68 50.1027 49.7069 50.143L66.3479 39.049C63.9108 35.3933 60.5257 32.7991 56.6209 31.1912L49.0059 49.6848ZM49.7984 50.2779C49.7805 50.2519 49.8023 50.2678 49.8372 50.3917C49.8759 50.5294 49.9414 50.8426 49.9414 51.394H69.9414C69.9414 47.0842 68.8957 42.7366 66.2564 38.9141L49.7984 50.2779ZM49.9414 51.394C49.9414 51.7257 49.9089 51.9333 49.8845 52.0435C49.8612 52.1489 49.8403 52.1893 49.8383 52.193C49.8368 52.196 49.8273 52.2169 49.7855 52.2645C49.7409 52.3154 49.6342 52.4253 49.4214 52.5782L61.0894 68.8218C66.9189 64.6345 69.9414 58.4615 69.9414 51.394H49.9414ZM49.4976 52.5239C48.7877 53.0239 46.5918 54 41.4614 54V74C48.475 74 55.4751 72.7761 61.0132 68.8761L49.4976 52.5239ZM41.4614 54H17.5694V74H41.4614V54ZM28.1954 65.948H40.6694V45.948H28.1954V65.948ZM40.6694 65.948C44.1959 65.948 48.5039 65.4427 52.2394 63.108L41.6394 46.148C42.1695 45.8167 42.4653 45.7884 42.2558 45.8325C42.0538 45.875 41.5558 45.948 40.6694 45.948V65.948ZM52.3082 63.0646C57.1199 60.0026 59.1174 55.0669 59.1174 50.272H39.1174C39.1174 50.0454 39.1613 49.3085 39.6286 48.3739C40.1255 47.3801 40.8634 46.6415 41.5707 46.1914L52.3082 63.0646ZM59.1174 50.272C59.1174 45.4219 57.0463 40.5605 52.3082 37.5454L41.5707 54.4186C40.8998 53.9917 40.1637 53.2739 39.6562 52.2744C39.1742 51.325 39.1174 50.5548 39.1174 50.272H59.1174ZM52.6047 37.7416C48.7842 35.115 44.3164 34.53 40.6694 34.53V54.53C41.0747 54.53 41.3917 54.5478 41.63 54.5716C41.8691 54.5954 42.0068 54.6229 42.0598 54.6352C42.1844 54.664 41.829 54.6039 41.2741 54.2224L52.6047 37.7416ZM40.6694 34.53H27.4034V54.53H40.6694V34.53ZM37.4034 44.53V36.742H17.4034V44.53H37.4034ZM27.4034 46.742H38.8214V26.742H27.4034V46.742ZM38.8214 46.742C42.2901 46.742 46.5024 46.1993 50.1827 43.825L39.3401 27.019C39.8666 26.6794 40.1953 26.6254 40.0841 26.6501C40.0374 26.6605 39.9128 26.6845 39.6958 26.7054C39.4795 26.7262 39.1909 26.742 38.8214 26.742V46.742ZM50.248 43.7825C54.7827 40.8066 56.8734 36.093 56.8734 31.264H36.8734C36.8734 30.9094 36.9462 30.1125 37.4296 29.1608C37.9323 28.1712 38.6465 27.4739 39.2748 27.0615L50.248 43.7825ZM56.8734 31.264C56.8734 26.3695 54.684 21.6472 50.0614 18.758L39.4614 35.718C38.8092 35.3104 38.0395 34.5976 37.4899 33.55C36.9595 32.5389 36.8734 31.6735 36.8734 31.264H56.8734ZM50.3699 18.9588C46.6486 16.438 42.3561 15.852 38.8214 15.852V35.852C39.1769 35.852 39.4494 35.868 39.6484 35.888C39.848 35.9082 39.9537 35.9305 39.9811 35.9369C40.0487 35.9527 39.6907 35.8815 39.1529 35.5172L50.3699 18.9588ZM38.8214 15.852H28.1954V35.852H38.8214V15.852ZM18.1954 25.852V55.948H38.1954V25.852H18.1954Z" fill="#1E1E1E" mask="url(#path-1-outside-1_6_31)"/>
<defs>
<linearGradient id="paint0_linear_6_31" x1="10" y1="22.5" x2="62.4982" y2="22.1948" gradientUnits="userSpaceOnUse">
<stop offset="0.00937462" stop-color="#0085FF"/>
<stop offset="0.316666" stop-color="#BD00FF"/>
<stop offset="0.644791" stop-color="#FF008A"/>
<stop offset="1" stop-color="#FFC909"/>
</linearGradient>
</defs>
</svg>
