<svg width="235" height="50" viewBox="0 0 235 50" fill="none" xmlns="http://www.w3.org/2000/svg">
<path d="M0.478 49V2.8H23.05C28.858 2.8 33.214 3.9 36.118 6.1C39.066 8.3 40.54 11.204 40.54 14.812C40.54 17.232 39.946 19.344 38.758 21.148C37.57 22.908 35.942 24.272 33.874 25.24C31.806 26.208 29.43 26.692 26.746 26.692L28 23.986C30.904 23.986 33.478 24.47 35.722 25.438C37.966 26.362 39.704 27.748 40.936 29.596C42.212 31.444 42.85 33.71 42.85 36.394C42.85 40.354 41.288 43.456 38.164 45.7C35.04 47.9 30.442 49 24.37 49H0.478ZM11.104 40.948H23.578C26.35 40.948 28.44 40.508 29.848 39.628C31.3 38.704 32.026 37.252 32.026 35.272C32.026 33.336 31.3 31.906 29.848 30.982C28.44 30.014 26.35 29.53 23.578 29.53H10.312V21.742H21.73C24.326 21.742 26.306 21.302 27.67 20.422C29.078 19.498 29.782 18.112 29.782 16.264C29.782 14.46 29.078 13.118 27.67 12.238C26.306 11.314 24.326 10.852 21.73 10.852H11.104V40.948ZM60.5148 49.528C56.7308 49.528 53.3648 48.736 50.4168 47.152C47.5128 45.568 45.2028 43.412 43.4868 40.684C41.8148 37.912 40.9788 34.766 40.9788 31.246C40.9788 27.682 41.8148 24.536 43.4868 21.808C45.2028 19.036 47.5128 16.88 50.4168 15.34C53.3648 13.756 56.7308 12.964 60.5148 12.964C64.2548 12.964 67.5988 13.756 70.5468 15.34C73.4948 16.88 75.8048 19.014 77.4768 21.742C79.1488 24.47 79.9848 27.638 79.9848 31.246C79.9848 34.766 79.1488 37.912 77.4768 40.684C75.8048 43.412 73.4948 45.568 70.5468 47.152C67.5988 48.736 64.2548 49.528 60.5148 49.528ZM60.5148 41.08C62.2308 41.08 63.7708 40.684 65.1348 39.892C66.4988 39.1 67.5768 37.978 68.3688 36.526C69.1608 35.03 69.5568 33.27 69.5568 31.246C69.5568 29.178 69.1608 27.418 68.3688 25.966C67.5768 24.514 66.4988 23.392 65.1348 22.6C63.7708 21.808 62.2308 21.412 60.5148 21.412C58.7988 21.412 57.2588 21.808 55.8948 22.6C54.5308 23.392 53.4308 24.514 52.5948 25.966C51.8028 27.418 51.4068 29.178 51.4068 31.246C51.4068 33.27 51.8028 35.03 52.5948 36.526C53.4308 37.978 54.5308 39.1 55.8948 39.892C57.2588 40.684 58.7988 41.08 60.5148 41.08ZM97.1628 49.528C93.3788 49.528 90.0128 48.736 87.0648 47.152C84.1608 45.568 81.8508 43.412 80.1348 40.684C78.4628 37.912 77.6268 34.766 77.6268 31.246C77.6268 27.682 78.4628 24.536 80.1348 21.808C81.8508 19.036 84.1608 16.88 87.0648 15.34C90.0128 13.756 93.3788 12.964 97.1628 12.964C100.903 12.964 104.247 13.756 107.195 15.34C110.143 16.88 112.453 19.014 114.125 21.742C115.797 24.47 116.633 27.638 116.633 31.246C116.633 34.766 115.797 37.912 114.125 40.684C112.453 43.412 110.143 45.568 107.195 47.152C104.247 48.736 100.903 49.528 97.1628 49.528ZM97.1628 41.08C98.8788 41.08 100.419 40.684 101.783 39.892C103.147 39.1 104.225 37.978 105.017 36.526C105.809 35.03 106.205 33.27 106.205 31.246C106.205 29.178 105.809 27.418 105.017 25.966C104.225 24.514 103.147 23.392 101.783 22.6C100.419 21.808 98.8788 21.412 97.1628 21.412C95.4468 21.412 93.9068 21.808 92.5428 22.6C91.1788 23.392 90.0788 24.514 89.2428 25.966C88.4508 27.418 88.0548 29.178 88.0548 31.246C88.0548 33.27 88.4508 35.03 89.2428 36.526C90.0788 37.978 91.1788 39.1 92.5428 39.892C93.9068 40.684 95.4468 41.08 97.1628 41.08ZM116.915 49V0.0279971H127.211V49H116.915ZM147.788 49.528C143.74 49.528 140.176 48.736 137.096 47.152C134.06 45.568 131.706 43.412 130.034 40.684C128.362 37.912 127.526 34.766 127.526 31.246C127.526 27.682 128.34 24.536 129.968 21.808C131.64 19.036 133.906 16.88 136.766 15.34C139.626 13.756 142.86 12.964 146.468 12.964C149.944 12.964 153.068 13.712 155.84 15.208C158.656 16.66 160.878 18.772 162.506 21.544C164.134 24.272 164.948 27.55 164.948 31.378C164.948 31.774 164.926 32.236 164.882 32.764C164.838 33.248 164.794 33.71 164.75 34.15H135.908V28.144H159.338L155.378 29.926C155.378 28.078 155.004 26.472 154.256 25.108C153.508 23.744 152.474 22.688 151.154 21.94C149.834 21.148 148.294 20.752 146.534 20.752C144.774 20.752 143.212 21.148 141.848 21.94C140.528 22.688 139.494 23.766 138.746 25.174C137.998 26.538 137.624 28.166 137.624 30.058V31.642C137.624 33.578 138.042 35.294 138.878 36.79C139.758 38.242 140.968 39.364 142.508 40.156C144.092 40.904 145.94 41.278 148.052 41.278C149.944 41.278 151.594 40.992 153.002 40.42C154.454 39.848 155.774 38.99 156.962 37.846L162.44 43.786C160.812 45.634 158.766 47.064 156.302 48.076C153.838 49.044 151 49.528 147.788 49.528ZM186.016 49V42.07L185.356 40.552V28.144C185.356 25.944 184.674 24.228 183.31 22.996C181.99 21.764 179.944 21.148 177.172 21.148C175.28 21.148 173.41 21.456 171.562 22.072C169.758 22.644 168.218 23.436 166.942 24.448L163.246 17.254C165.182 15.89 167.514 14.834 170.242 14.086C172.97 13.338 175.742 12.964 178.558 12.964C183.97 12.964 188.172 14.24 191.164 16.792C194.156 19.344 195.652 23.326 195.652 28.738V49H186.016ZM175.192 49.528C172.42 49.528 170.044 49.066 168.064 48.142C166.084 47.174 164.566 45.876 163.51 44.248C162.454 42.62 161.926 40.794 161.926 38.77C161.926 36.658 162.432 34.81 163.444 33.226C164.5 31.642 166.15 30.41 168.394 29.53C170.638 28.606 173.564 28.144 177.172 28.144H186.61V34.15H178.294C175.874 34.15 174.202 34.546 173.278 35.338C172.398 36.13 171.958 37.12 171.958 38.308C171.958 39.628 172.464 40.684 173.476 41.476C174.532 42.224 175.962 42.598 177.766 42.598C179.482 42.598 181.022 42.202 182.386 41.41C183.75 40.574 184.74 39.364 185.356 37.78L186.94 42.532C186.192 44.82 184.828 46.558 182.848 47.746C180.868 48.934 178.316 49.528 175.192 49.528ZM219.953 12.964C222.769 12.964 225.277 13.536 227.477 14.68C229.721 15.78 231.481 17.496 232.757 19.828C234.033 22.116 234.671 25.064 234.671 28.672V49H224.375V30.256C224.375 27.396 223.737 25.284 222.461 23.92C221.229 22.556 219.469 21.874 217.181 21.874C215.553 21.874 214.079 22.226 212.759 22.93C211.483 23.59 210.471 24.624 209.723 26.032C209.019 27.44 208.667 29.244 208.667 31.444V49H198.371V13.492H208.205V23.326L206.357 20.356C207.633 17.98 209.459 16.154 211.835 14.878C214.211 13.602 216.917 12.964 219.953 12.964Z" fill="url(#paint0_linear_6_101)"/>
<defs>
<linearGradient id="paint0_linear_6_101" x1="-5" y1="12.6923" x2="222.422" y2="32.8263" gradientUnits="userSpaceOnUse">
<stop offset="0.00937462" stop-color="#0085FF"/>
<stop offset="0.316666" stop-color="#BD00FF"/>
<stop offset="0.644791" stop-color="#FF008A"/>
<stop offset="1" stop-color="#FFC909"/>
</linearGradient>
</defs>
</svg>
