<svg width="50" height="50" viewBox="0 0 50 50" fill="none" xmlns="http://www.w3.org/2000/svg">
<circle cx="25" cy="25" r="25" fill="#1E1E1E"/>
<path d="M23.5 38C23.5 38.8284 24.1716 39.5 25 39.5C25.8284 39.5 26.5 38.8284 26.5 38H23.5ZM26.0607 11.9393C25.4749 11.3536 24.5251 11.3536 23.9393 11.9393L14.3934 21.4853C13.8076 22.0711 13.8076 23.0208 14.3934 23.6066C14.9792 24.1924 15.9289 24.1924 16.5147 23.6066L25 15.1213L33.4853 23.6066C34.0711 24.1924 35.0208 24.1924 35.6066 23.6066C36.1924 23.0208 36.1924 22.0711 35.6066 21.4853L26.0607 11.9393ZM26.5 38V13H23.5V38H26.5Z" fill="white"/>
</svg>
