<svg width="4" height="20" viewBox="0 0 4 20" fill="none" xmlns="http://www.w3.org/2000/svg">
<path d="M1.965 3.12C1.565 3.12 1.22 2.985 0.93 2.715C0.65 2.435 0.51 2.08 0.51 1.65C0.51 1.22 0.65 0.875 0.93 0.615C1.22 0.345 1.565 0.21 1.965 0.21C2.375 0.21 2.72 0.345 3 0.615C3.28 0.875 3.42 1.22 3.42 1.65C3.42 2.08 3.28 2.435 3 2.715C2.72 2.985 2.375 3.12 1.965 3.12ZM1.965 11.12C1.565 11.12 1.22 10.985 0.93 10.715C0.65 10.435 0.51 10.08 0.51 9.65C0.51 9.22 0.65 8.875 0.93 8.615C1.22 8.345 1.565 8.21 1.965 8.21C2.375 8.21 2.72 8.345 3 8.615C3.28 8.875 3.42 9.22 3.42 9.65C3.42 10.08 3.28 10.435 3 10.715C2.72 10.985 2.375 11.12 1.965 11.12ZM1.965 19.12C1.565 19.12 1.22 18.985 0.93 18.715C0.65 18.435 0.51 18.08 0.51 17.65C0.51 17.22 0.65 16.875 0.93 16.615C1.22 16.345 1.565 16.21 1.965 16.21C2.375 16.21 2.72 16.345 3 16.615C3.28 16.875 3.42 17.22 3.42 17.65C3.42 18.08 3.28 18.435 3 18.715C2.72 18.985 2.375 19.12 1.965 19.12Z" fill="white"/>
</svg>
